<?xml version="1.0" encoding="UTF-8"?>
<svg version="1.1" xmlns="http://www.w3.org/2000/svg" width="1080" height="1080">
<path d="M0 0 C356.4 0 712.8 0 1080 0 C1080 356.4 1080 712.8 1080 1080 C723.6 1080 367.2 1080 0 1080 C0 723.6 0 367.2 0 0 Z " fill="#213C44" transform="translate(0,0)"/>
<path d="M0 0 C3.00874098 1.33803458 4.98385643 2.77584376 7.20703125 5.1953125 C7.79009033 5.82477783 8.37314941 6.45424316 8.97387695 7.1027832 C9.88399536 8.10378052 9.88399536 8.10378052 10.8125 9.125 C11.75452271 10.14823364 11.75452271 10.14823364 12.71557617 11.19213867 C16.31944595 15.11830956 19.88542192 19.07475945 23.36328125 23.11328125 C25.37873772 25.43658787 27.43848462 27.71748465 29.5 30 C32.18983431 32.98062721 34.86310364 35.97245233 37.5 39 C41.61081039 43.71701284 45.80667845 48.35638889 50 53 C54.76786975 58.27985576 59.51512218 63.57291806 64.1875 68.9375 C66.27211164 71.30964429 68.38428644 73.65556065 70.5 76 C71.62728516 77.25296875 71.62728516 77.25296875 72.77734375 78.53125 C74.2244087 80.1385348 75.67476693 81.74286268 77.12890625 83.34375 C77.76699219 84.0553125 78.40507813 84.766875 79.0625 85.5 C79.91521484 86.44359375 79.91521484 86.44359375 80.78515625 87.40625 C82 89 82 89 82 91 C76.95866638 91.37105357 71.93045029 91.57965062 66.875 91.484375 C66.0396875 91.47116211 65.204375 91.45794922 64.34375 91.44433594 C61.42725146 90.89141642 60.06517584 89.78342442 57.9375 87.75 C56.9483282 86.17289792 55.97035786 84.58874713 55 83 C53.23565903 81.00314898 51.45693106 79.0565965 49.625 77.125 C48.66739688 76.08766428 47.71165598 75.0486063 46.7578125 74.0078125 C46.29149414 73.50024414 45.82517578 72.99267578 45.34472656 72.46972656 C42.65207195 69.52677435 39.99486563 66.55193121 37.33203125 63.58203125 C35.60923741 61.67454929 33.87856086 59.77665505 32.13671875 57.88671875 C31.646875 57.35498047 31.15703125 56.82324219 30.65234375 56.27539062 C29.26315355 54.76950845 27.87187087 53.2655574 26.48046875 51.76171875 C24.21781289 49.24250979 22.08439076 46.66743712 20 44 C17.10125583 45.29264127 15.23397474 46.56487568 13.1875 48.984375 C12.67566162 49.58258057 12.16382324 50.18078613 11.63647461 50.79711914 C11.09643799 51.44156982 10.55640137 52.08602051 10 52.75 C9.42967041 53.4195874 8.85934082 54.0891748 8.27172852 54.77905273 C7.08753442 56.16996156 5.90599602 57.56313552 4.72705078 58.95849609 C2.63452149 61.43202309 0.52424771 63.88990017 -1.58789062 66.34667969 C-3.07258668 68.07423662 -4.55432953 69.80428191 -6.03515625 71.53515625 C-9.02124146 75.02532178 -12.01039158 78.51285232 -15 82 C-16.0000134 83.16665518 -17.00001341 84.33332184 -18 85.5 C-96 176.5 -96 176.5 -97.50170898 178.25195312 C-98.49606605 179.41206337 -99.49036992 180.5722192 -100.48461914 181.73242188 C-103.07050923 184.74978862 -105.65747437 187.76622426 -108.24609375 190.78125 C-109.04756836 191.71517578 -109.04756836 191.71517578 -109.86523438 192.66796875 C-110.87790832 193.84795404 -111.89090404 195.02766329 -112.90429688 196.20703125 C-113.36771484 196.74714844 -113.83113281 197.28726563 -114.30859375 197.84375 C-114.90885376 198.54274414 -114.90885376 198.54274414 -115.52124023 199.25585938 C-117.20233182 201.13608015 -117.20233182 201.13608015 -118.84472656 204.16064453 C-120.74054754 206.4141853 -121.75804858 206.95283298 -124.68788147 207.52398682 C-128.19867578 207.69620342 -131.66177855 207.67349322 -135.17578125 207.5859375 C-136.45607712 207.57744781 -137.73637299 207.56895813 -139.0554657 207.56021118 C-142.44767428 207.53737908 -145.83832388 207.47851072 -149.22991943 207.4119873 C-152.69538281 207.35043955 -156.1610999 207.32316993 -159.62695312 207.29296875 C-166.41864278 207.22683891 -173.2091801 207.12645064 -180 207 C-179.06221798 205.73271135 -178.12205098 204.46718739 -177.1809082 203.20239258 C-176.39596733 202.14499626 -176.39596733 202.14499626 -175.59516907 201.0662384 C-173.30310577 198.09730595 -170.77481644 195.39804235 -168.1875 192.6875 C-163.65950511 187.86841472 -159.41809643 182.90518705 -155.27734375 177.74609375 C-152.78173531 174.73680948 -150.16234857 171.86061346 -147.5 169 C-144.02580757 165.26672745 -140.6993129 161.47628889 -137.5 157.5 C-133.8643595 152.98141824 -130.03163598 148.72016671 -126.08374023 144.47827148 C-123.11284372 141.2670095 -120.30038923 137.97372185 -117.5625 134.5625 C-113.71954521 129.78458662 -109.63168671 125.31005016 -105.44384766 120.83837891 C-101.52093146 116.62570895 -97.88088976 112.23586445 -94.27734375 107.74609375 C-91.78173531 104.73680948 -89.16234857 101.86061346 -86.5 99 C-83.02580757 95.26672745 -79.6993129 91.47628889 -76.5 87.5 C-72.86500611 82.98222187 -69.0328971 78.72181484 -65.0859375 74.48046875 C-62.09558642 71.24788253 -59.26213671 67.93294134 -56.5 64.5 C-52.8643595 59.98141824 -49.03163598 55.72016671 -45.08374023 51.47827148 C-42.11284372 48.2670095 -39.30038923 44.97372185 -36.5625 41.5625 C-32.71954521 36.78458662 -28.63168671 32.31005016 -24.44384766 27.83837891 C-20.53357997 23.6392917 -16.90376088 19.26493543 -13.3125 14.7890625 C-9.07615736 9.67968979 -4.52840059 4.850044 0 0 Z " fill="#82B083" transform="translate(576,349)"/>
<path d="M0 0 C2.89631874 1.30016516 4.85194306 2.63510423 6.98828125 4.9765625 C7.52590088 5.56050781 8.06352051 6.14445312 8.61743164 6.74609375 C9.1768042 7.36613281 9.73617676 7.98617188 10.3125 8.625 C11.18733032 9.58212891 11.18733032 9.58212891 12.07983398 10.55859375 C17.05227738 16.0136301 21.91590731 21.55062316 26.69921875 27.171875 C31.65354666 32.98635169 36.63144913 38.76054296 41.8125 44.375 C42.26802246 44.86863037 42.72354492 45.36226074 43.19287109 45.87084961 C43.63324707 46.3478833 44.07362305 46.82491699 44.52734375 47.31640625 C49.75018175 52.98479441 54.63062528 58.64454586 59 65 C56.03 68.3 53.06 71.6 50 75 C45.59800128 71.40653166 41.77471942 67.74915575 38.1015625 63.421875 C34.85986141 59.68608564 31.46952148 56.08859477 28.0871582 52.48022461 C25.84003144 50.06702005 23.83356846 47.75035268 22 45 C18.18511059 46.51398078 16.36923371 48.72997068 13.875 51.9375 C10.70458529 55.92390669 7.45622104 59.7584523 4 63.5 C0.70668301 67.07792463 -2.44651321 70.71539666 -5.5 74.5 C-9.33719031 79.25595419 -13.39385101 83.75504801 -17.53125 88.25 C-19.94378104 90.93737634 -22.2325621 93.68965444 -24.5 96.5 C-28.33719031 101.25595419 -32.39385101 105.75504801 -36.53125 110.25 C-38.94378104 112.93737634 -41.2325621 115.68965444 -43.5 118.5 C-47.33719031 123.25595419 -51.39385101 127.75504801 -55.53125 132.25 C-57.94378104 134.93737634 -60.2325621 137.68965444 -62.5 140.5 C-66.33835414 145.25739668 -70.39622359 149.75783918 -74.53515625 154.25390625 C-76.92707297 156.91875166 -79.19254884 159.64831825 -81.4375 162.4375 C-85.09506264 166.97236161 -88.94617027 171.25536183 -92.91162109 175.51708984 C-96.709548 179.62299265 -100.2342593 183.91291074 -103.7421875 188.26953125 C-106.88086857 192.06527185 -110.19940415 195.68161113 -113.54296875 199.296875 C-115.91234958 201.74017897 -115.91234958 201.74017897 -117.10118103 203.77119446 C-119.25531075 206.96761702 -120.86300795 208.74101073 -124.70054626 209.61514282 C-128.09945461 209.81064988 -131.4328906 209.78656895 -134.8359375 209.68359375 C-136.07042633 209.67368912 -137.30491516 209.66378448 -138.57681274 209.65357971 C-142.51076193 209.61446714 -146.44189747 209.52663751 -150.375 209.4375 C-153.04553213 209.39843443 -155.71603781 209.37044522 -158.38671875 209.34179688 C-164.92543539 209.26471442 -171.46251669 209.14765083 -178 209 C-176.38182825 205.59170063 -174.52234036 203.20469242 -171.9375 200.4375 C-168.68892508 196.89831774 -165.57531784 193.30439832 -162.5625 189.5625 C-158.70291397 184.79003797 -154.62800009 180.26890891 -150.47265625 175.75390625 C-147.25290481 172.16792716 -144.24094824 168.43298508 -141.21484375 164.68359375 C-139.04367173 162.05291443 -136.79758643 159.52057576 -134.5 157 C-131.38541332 153.58260628 -128.4081338 150.0947765 -125.5 146.5 C-121.88967558 142.03723787 -118.11572071 137.77280467 -114.25 133.53125 C-111.92137947 130.9115519 -109.70437053 128.2248469 -107.5 125.5 C-103.88967558 121.03723787 -100.11572071 116.77280467 -96.25 112.53125 C-93.92137947 109.9115519 -91.70437053 107.2248469 -89.5 104.5 C-85.88967558 100.03723787 -82.11572071 95.77280467 -78.25 91.53125 C-75.92137947 88.9115519 -73.70437053 86.2248469 -71.5 83.5 C-67.88967558 79.03723787 -64.11572071 74.77280467 -60.25 70.53125 C-57.92137947 67.9115519 -55.70437053 65.2248469 -53.5 62.5 C-49.88850866 58.03579543 -46.11339306 53.76997886 -42.24609375 49.52734375 C-39.93812402 46.93037607 -37.74444137 44.26595987 -35.5625 41.5625 C-32.48663412 37.75912497 -29.31246834 34.09917348 -26 30.5 C-21.97625547 26.12340403 -18.18269795 21.61714379 -14.44921875 16.9921875 C-9.73949948 11.23836778 -4.85700947 5.62952875 0 0 Z " fill="#82B083" transform="translate(436,347)"/>
<path d="M0 0 C5.100418 -0.12574041 10.19989025 -0.21532044 15.30151367 -0.2746582 C17.02856196 -0.29945143 18.75550947 -0.33329752 20.48217773 -0.37719727 C38.95236307 -0.83424698 55.82636082 2.1562466 69.75 15.25 C81.65110216 27.8437589 85.74662227 44.01563897 85.40625 61.015625 C84.611505 75.51404442 77.55812938 90.59094106 66.92578125 100.4453125 C52.58227444 112.02485755 37.78359758 112.56541157 20.1875 112.25 C18.22332562 112.22989287 16.25913123 112.2116496 14.29492188 112.1953125 C9.52944521 112.15167707 4.76494897 112.08288531 0 112 C0.32466248 110.878853 0.64932495 109.75770599 0.98382568 108.60258484 C2.172906 103.8183245 2.28187378 99.26845205 2.25878906 94.35864258 C2.2622937 93.42916306 2.26579834 92.49968353 2.26940918 91.54203796 C2.27815809 88.49279142 2.27240303 85.44377984 2.265625 82.39453125 C2.26697327 80.26559912 2.26891516 78.13666729 2.27142334 76.00773621 C2.27436504 71.55696669 2.27010638 67.1062777 2.26074219 62.65551758 C2.24932741 56.95251238 2.25592603 51.24969503 2.26788712 45.54669666 C2.2751137 41.1552336 2.27281446 36.7638151 2.26763153 32.37235069 C2.26629833 30.2692125 2.26793121 28.16607024 2.27259064 26.06293678 C2.27767121 23.12623995 2.26992489 20.18984796 2.25878906 17.25317383 C2.26283752 16.38604767 2.26688599 15.51892151 2.27105713 14.6255188 C2.2402458 10.23806821 1.88428329 7.03962445 0 3 C0 2.01 0 1.02 0 0 Z " fill="#F5F8F3" transform="translate(557,466)"/>
<path d="M0 0 C0.33 3.63 0.66 7.26 1 11 C2.175625 9.906875 3.35125 8.81375 4.5625 7.6875 C11.01198444 2.1272115 16.46376497 0.40183712 24.93359375 0.65625 C31.76483503 1.4220452 37.0757791 3.50989275 41.625 8.75 C42.43722398 9.81800722 43.23721875 10.8961377 44 12 C44.42410156 11.61328125 44.84820313 11.2265625 45.28515625 10.828125 C53.28386036 3.72597893 60.25716437 0.51812216 71.0859375 0.6640625 C76.96454609 1.34175732 81.82695036 3.72978147 85.921875 8.0078125 C89.76872888 12.97208584 91.11770125 16.61130941 91.17358398 22.93676758 C91.18707382 24.15846146 91.20056366 25.38015533 91.21446228 26.63887024 C91.21952223 27.29130518 91.22458218 27.94374012 91.22979546 28.61594582 C91.24624716 30.66362501 91.26948796 32.71112372 91.29469299 34.75871277 C91.36534293 40.58001658 91.42546748 46.40139485 91.47680664 52.22290039 C91.50870669 55.78614809 91.55001128 59.34918862 91.59700203 62.91226768 C91.62069126 64.92287024 91.6337333 66.93358917 91.64659119 68.94429016 C91.66323318 70.17544052 91.67987518 71.40659088 91.69702148 72.67504883 C91.71248268 74.29362541 91.71248268 74.29362541 91.72825623 75.94490051 C91.93173671 79.56498655 91.93173671 79.56498655 94 85 C84.43 85 74.86 85 65 85 C65.66 82.69 66.32 80.38 67 78 C67.30248236 74.89489973 67.30248236 74.89489973 67.2746582 71.74511719 C67.28419022 70.55408386 67.29372223 69.36305054 67.30354309 68.13592529 C67.30263168 66.8690387 67.30172028 65.6021521 67.30078125 64.296875 C67.30720894 62.32476044 67.30720894 62.32476044 67.31376648 60.31280518 C67.32119438 57.54247988 67.32096037 54.77228215 67.31567383 52.00195312 C67.30985228 48.45203269 67.32689047 44.90262947 67.3500185 41.35279465 C67.3682709 37.95913249 67.36457178 34.56558604 67.36328125 31.171875 C67.372491 29.89689148 67.38170074 28.62190796 67.39118958 27.30828857 C67.38184639 25.54065155 67.38184639 25.54065155 67.37231445 23.73730469 C67.37294388 22.6991864 67.3735733 21.66106812 67.3742218 20.5914917 C67.20710817 17.98094235 67.20710817 17.98094235 65.66423035 16.20391846 C61.99315106 13.54822833 58.36979734 13.62967819 54 14 C50.29609979 16.02666238 48.34636989 17.48044516 46 21 C45.70261756 23.60535583 45.70261756 23.60535583 45.75708008 26.56958008 C45.75400345 27.71119095 45.75092682 28.85280182 45.74775696 30.02900696 C45.75494247 31.26337997 45.76212799 32.49775299 45.76953125 33.76953125 C45.76998947 35.03842697 45.77044769 36.30732269 45.7709198 37.6146698 C45.77394397 40.30224936 45.78076377 42.98948721 45.79418945 45.67700195 C45.81112772 49.10999319 45.81500511 52.54283724 45.81424427 55.97586536 C45.81458294 59.26126839 45.8234329 62.54664096 45.83203125 65.83203125 C45.83314407 67.06033157 45.8342569 68.2886319 45.83540344 69.55415344 C45.84178329 70.70522079 45.84816315 71.85628815 45.85473633 73.04223633 C45.85854813 74.05022781 45.86235992 75.0582193 45.86628723 76.09675598 C45.96700946 79.53492392 45.96700946 79.53492392 47 85 C38.42 85 29.84 85 21 85 C21.33 82.69 21.66 80.38 22 78 C22.08515659 75.9469506 22.12779733 73.89172815 22.12939453 71.83691406 C22.13412277 70.0803952 22.13412277 70.0803952 22.13894653 68.28839111 C22.1369223 67.0433783 22.13489807 65.79836548 22.1328125 64.515625 C22.13376923 63.223078 22.13472595 61.93053101 22.13571167 60.59881592 C22.1371792 57.87559807 22.13506322 55.15241321 22.13037109 52.42919922 C22.12465158 48.93998745 22.12797276 45.45085224 22.13394356 41.96164322 C22.13842253 38.62546431 22.13528923 35.28930609 22.1328125 31.953125 C22.13483673 30.70001526 22.13686096 29.44690552 22.13894653 28.15582275 C22.13579437 26.99741882 22.13264221 25.83901489 22.12939453 24.64550781 C22.12859894 23.62515442 22.12780334 22.60480103 22.12698364 21.55352783 C22.10857205 18.87785131 22.10857205 18.87785131 21 16 C16.90581972 14.46804195 12.29653964 14.43224298 8 15 C4.66399633 17.05838525 3.1737824 18.7393264 1 22 C0.69649283 24.42097994 0.69649283 24.42097994 0.74121094 27.15478516 C0.73490662 28.20662994 0.72860229 29.25847473 0.72210693 30.3421936 C0.7261554 31.47966034 0.73020386 32.61712708 0.734375 33.7890625 C0.73246155 34.96205902 0.7305481 36.13505554 0.72857666 37.34359741 C0.7272142 39.83014134 0.73091483 42.31669236 0.73925781 44.80322266 C0.7498989 48.58903257 0.73939403 52.37436171 0.7265625 56.16015625 C0.72788521 58.57812604 0.7304499 60.99609553 0.734375 63.4140625 C0.73032654 64.53938385 0.72627808 65.6647052 0.72210693 66.8241272 C0.72841125 67.89488495 0.73471558 68.9656427 0.74121094 70.06884766 C0.74280212 70.99911774 0.74439331 71.92938782 0.74603271 72.8878479 C1.0800495 76.98093818 2.10913247 80.99109613 3 85 C-6.57 85 -16.14 85 -26 85 C-25.34 82.03 -24.68 79.06 -24 76 C-23.70670607 72.61707734 -23.70670607 72.61707734 -23.74121094 69.33789062 C-23.73490662 68.10631226 -23.72860229 66.87473389 -23.72210693 65.60583496 C-23.7261554 64.30247192 -23.73020386 62.99910889 -23.734375 61.65625 C-23.7330243 60.27819755 -23.73108041 58.90014557 -23.72857666 57.52209473 C-23.72564442 54.64765848 -23.72986133 51.77334737 -23.73925781 48.89892578 C-23.75065129 45.23765346 -23.74408155 41.5766745 -23.73211288 37.9154129 C-23.72484261 35.0738916 -23.72720576 32.23243841 -23.73236847 29.39091492 C-23.73432771 27.39199632 -23.72831588 25.39307495 -23.72210693 23.39416504 C-23.75684748 16.60743867 -24.21113062 10.55504272 -26 4 C-24.15535156 3.81824219 -24.15535156 3.81824219 -22.2734375 3.6328125 C-20.6405882 3.46389705 -19.00777768 3.29460636 -17.375 3.125 C-16.16263672 3.00705078 -16.16263672 3.00705078 -14.92578125 2.88671875 C-9.93269543 2.35899423 -4.83891033 0 0 0 Z " fill="#F7F9F4" transform="translate(735,614)"/>
<path d="M0 0 C10.56 0 21.12 0 32 0 C31.34 2.64 30.68 5.28 30 8 C29.68952549 10.49374049 29.68952549 10.49374049 29.68115234 12.76367188 C29.66128265 13.60393921 29.64141296 14.44420654 29.62094116 15.30993652 C29.60361435 16.62604919 29.60361435 16.62604919 29.5859375 17.96875 C29.56657135 18.88966431 29.5472052 19.81057861 29.5272522 20.75939941 C29.46793501 23.67284159 29.42126412 26.58632431 29.375 29.5 C29.33677609 31.48699548 29.29772185 33.47397516 29.2578125 35.4609375 C29.16227335 40.30716197 29.07806757 45.15346388 29 50 C30.60056203 49.26183176 32.19432545 48.50891273 33.78515625 47.75 C34.67340088 47.33234375 35.56164551 46.9146875 36.47680664 46.484375 C46.49728044 40.58940832 52.11066762 24.14873134 57 14 C57.53693481 12.89458862 57.53693481 12.89458862 58.0847168 11.7668457 C59.42035895 8.04988115 59.42035895 8.04988115 60 0 C71.22 0 82.44 0 94 0 C92.02 2.64 90.04 5.28 88 8 C86.97049068 9.5396373 85.9621435 11.09404174 84.9921875 12.671875 C84.4856665 13.49163818 83.97914551 14.31140137 83.45727539 15.15600586 C82.93512451 16.01202393 82.41297363 16.86804199 81.875 17.75 C81.32384521 18.65306885 80.77269043 19.5561377 80.20483398 20.48657227 C79.05433572 22.37276108 77.90485058 24.25956821 76.75634766 26.14697266 C75.00782265 28.98729281 73.21850577 31.79789349 71.41796875 34.60546875 C70.29917497 36.38262103 69.18067416 38.15995779 68.0625 39.9375 C67.25498291 41.16968262 67.25498291 41.16968262 66.43115234 42.42675781 C65.94984863 43.20245117 65.46854492 43.97814453 64.97265625 44.77734375 C64.54218994 45.45015381 64.11172363 46.12296387 63.66821289 46.81616211 C62.0548556 52.08889902 66.27207213 57.81188944 68.6328125 62.4609375 C68.98834198 63.16916656 69.34387146 63.87739563 69.71017456 64.60708618 C70.84467946 66.86497795 71.98469131 69.12003472 73.125 71.375 C74.2377345 73.58540579 75.34934661 75.79637349 76.46087646 78.00738525 C77.20066688 79.47675056 77.9420829 80.94529854 78.68511963 82.4130249 C80.54089223 86.08090127 82.37411525 89.75703275 84.16308594 93.45800781 C84.68792068 94.53461166 84.68792068 94.53461166 85.22335815 95.63296509 C85.87827078 96.97874825 86.52686928 98.32763248 87.16751099 99.68026733 C89.3799364 104.20517835 91.62547296 106.95056755 95 111 C83.78 111 72.56 111 61 111 C60.01 106.05 60.01 106.05 59 101 C57.01794928 95.50994475 54.52813574 90.25677493 52 85 C51.60151855 84.17032715 51.20303711 83.3406543 50.79248047 82.48583984 C49.53119076 79.89462212 48.24057983 77.32042847 46.9375 74.75 C46.53853516 73.93990479 46.13957031 73.12980957 45.72851562 72.29516602 C43.21597979 67.46159861 41.06734967 64.45459634 36 62 C33.67291876 61.62550242 31.33949319 61.28692713 29 61 C29.0693553 66.51393764 29.15754853 72.02715121 29.26245117 77.54052734 C29.29549947 79.41218973 29.3235925 81.28394697 29.34643555 83.15576172 C29.3803545 85.86206105 29.4326842 88.56750663 29.48828125 91.2734375 C29.49467117 92.09677582 29.5010611 92.92011414 29.50764465 93.7684021 C29.66927459 100.30144225 31.00116031 104.33720103 33 111 C22.11 111 11.22 111 0 111 C0.66 108.69 1.32 106.38 2 104 C2.28913584 101.64743306 2.28913584 101.64743306 2.25396729 99.43344116 C2.25960693 98.59804306 2.26524658 97.76264496 2.27105713 96.90193176 C2.26700867 96.0092308 2.26296021 95.11652985 2.25878906 94.19677734 C2.2622937 93.23818314 2.26579834 92.27958893 2.26940918 91.29194641 C2.27817445 88.13986866 2.27239664 84.98801733 2.265625 81.8359375 C2.26697292 79.6383154 2.26891452 77.44069359 2.27142334 75.24307251 C2.27436736 70.64509228 2.2700993 66.04718991 2.26074219 61.44921875 C2.24933469 55.55673735 2.25591998 49.66443789 2.26788712 43.77196312 C2.27511369 39.23723987 2.27281433 34.70255978 2.26763153 30.16783524 C2.26629795 27.99491988 2.26793256 25.82200059 2.27259064 23.64908981 C2.27767038 20.61409872 2.26992568 17.57940271 2.25878906 14.54443359 C2.26283752 13.64768417 2.26688599 12.75093475 2.27105713 11.82701111 C2.26541748 10.99725266 2.25977783 10.1674942 2.25396729 9.31259155 C2.25321323 8.5962322 2.25245918 7.87987286 2.25168228 7.14180565 C2.02873944 4.44232239 2.02873944 4.44232239 0 0 Z " fill="#F5F8F3" transform="translate(370,588)"/>
<path d="M0 0 C8.91 0 17.82 0 27 0 C27.5775 2.990625 28.155 5.98125 28.75 9.0625 C30.32990683 17.04183391 32.17531564 24.88479103 34.37109375 32.71972656 C35.12158255 35.44083113 35.84248828 38.16911077 36.5625 40.8984375 C40.16640186 54.52399424 43.98761118 68.05812504 48.21533203 81.50390625 C48.71265684 83.08593763 49.20627993 84.66914137 49.69482422 86.25390625 C50.30641283 88.23543483 50.93158813 90.21205179 51.5625 92.1875 C51.89378906 93.23292969 52.22507812 94.27835938 52.56640625 95.35546875 C54.67985126 100.72834121 57.41796947 105.83593894 60 111 C49.44 111 38.88 111 28 111 C27.67 106.38 27.34 101.76 27 97 C26.11698585 92.47786692 26.11698585 92.47786692 24.9375 88.625 C24.298125 86.43875 23.65875 84.2525 23 82 C13.1 82 3.2 82 -7 82 C-7.9590625 85.5578125 -7.9590625 85.5578125 -8.9375 89.1875 C-9.13722412 89.90446045 -9.33694824 90.6214209 -9.54272461 91.36010742 C-11.28673704 98.09102896 -11.43994876 103.71933384 -12 111 C-21.57 111 -31.14 111 -41 111 C-39.82129678 108.64259357 -38.61856644 106.29649731 -37.36230469 103.97949219 C-30.92324374 91.89435396 -26.61864872 79.19670244 -22.25 66.25 C-21.46382568 63.9470554 -20.676789 61.64440503 -19.88891602 59.34204102 C-17.5752671 52.56717677 -15.28378151 45.7849833 -13 39 C-12.66562927 38.0072406 -12.33125854 37.0144812 -11.98675537 35.99163818 C-8.28892116 25.00610492 -4.62826536 14.00869273 -1 3 C-0.67 2.01 -0.34 1.02 0 0 Z " fill="#F6F8F3" transform="translate(211,588)"/>
<path d="M0 0 C0.33 15.18 0.66 30.36 1 46 C2.65 44.35 4.3 42.7 6 41 C13.67256635 35.28638676 20.57871056 34.05194572 30 35 C36.80408602 36.6563197 41.16651378 39.12997422 45 45 C46.85884005 48.86608061 47.26255812 51.98126246 47.30297852 56.25561523 C47.31962051 57.4971788 47.33626251 58.73874237 47.35340881 60.01792908 C47.36197221 61.36481689 47.37046975 62.71170513 47.37890625 64.05859375 C47.39509795 65.44956104 47.41227969 66.84051713 47.43040466 68.23146057 C47.47599505 71.88692007 47.51084074 75.54239509 47.54260254 79.19799805 C47.59454982 85.04477583 47.65996687 90.89138694 47.73081779 96.73796272 C47.75350939 98.77300191 47.76987293 100.80802058 47.78553772 102.84312439 C47.79902756 104.08784012 47.8125174 105.33255585 47.82641602 106.61499023 C47.83592789 107.70577377 47.84543976 108.79655731 47.85523987 109.9203949 C47.96312807 113.5058326 47.96312807 113.5058326 49 119 C39.76 119 30.52 119 21 119 C21.66 117.02 22.32 115.04 23 113 C23.31729898 110.0088663 23.31729898 110.0088663 23.30639648 106.89038086 C23.32238388 105.70572739 23.33837128 104.52107391 23.35484314 103.30052185 C23.36020584 102.03474808 23.36556854 100.7689743 23.37109375 99.46484375 C23.38012222 98.15342911 23.3891507 96.84201447 23.39845276 95.49085999 C23.41488654 92.72296696 23.42263333 89.95519415 23.42553711 87.18725586 C23.43093477 83.64730896 23.4686929 80.10849565 23.51428127 76.56886959 C23.55122067 73.1800325 23.55256444 69.79137534 23.55859375 66.40234375 C23.57812607 65.13454575 23.59765839 63.86674774 23.61778259 62.56053162 C23.84447297 55.57042777 23.84447297 55.57042777 20.64477539 49.69750977 C17.32649891 47.56772334 15.8805333 47.30150401 12 48 C7.00602888 50.15257376 4.57093868 51.87793688 1.86141968 56.75376892 C0.10398848 61.33643248 0.47585713 66.18795546 0.5390625 71.03125 C0.53997894 72.18113403 0.54089539 73.33101807 0.5418396 74.51574707 C0.54786442 76.93973942 0.56357649 79.36372471 0.58837891 81.78759766 C0.62487754 85.48758537 0.62939796 89.18656977 0.62890625 92.88671875 C0.63873877 95.24740444 0.65039635 97.60808339 0.6640625 99.96875 C0.66628815 101.06997192 0.66851379 102.17119385 0.67080688 103.30578613 C0.68994644 104.86275208 0.68994644 104.86275208 0.70947266 106.45117188 C0.71709625 107.35605347 0.72471985 108.26093506 0.73257446 109.1932373 C0.98599089 112.75604946 0.98599089 112.75604946 3 119 C-6.24 119 -15.48 119 -25 119 C-24.67 117.02 -24.34 115.04 -24 113 C-23.9174332 111.47116584 -23.87378991 109.93963124 -23.87301636 108.40856934 C-23.87019653 107.54233444 -23.86737671 106.67609955 -23.86447144 105.78361511 C-23.86649567 104.85148697 -23.8685199 103.91935883 -23.87060547 102.95898438 C-23.86885315 101.9631282 -23.86710083 100.96727203 -23.86529541 99.9412384 C-23.86090443 96.65872439 -23.86380521 93.37626453 -23.8671875 90.09375 C-23.86651367 87.80741363 -23.86554298 85.52107733 -23.86428833 83.23474121 C-23.86281509 78.44668901 -23.86495394 73.65865549 -23.86962891 68.87060547 C-23.87532595 62.73722599 -23.87204496 56.60389027 -23.86605644 50.47051239 C-23.86244078 45.75046459 -23.86359405 41.03042714 -23.86618423 36.31037903 C-23.86685072 34.04897557 -23.86603482 31.78757118 -23.86370468 29.52616882 C-23.8611617 26.3644258 -23.86504204 23.2027534 -23.87060547 20.04101562 C-23.86858124 19.10888748 -23.86655701 18.17675934 -23.86447144 17.21638489 C-23.87918789 12.69557021 -24.07751023 8.44905731 -25 4 C-23.97519531 3.87882813 -22.95039063 3.75765625 -21.89453125 3.6328125 C-20.53381021 3.46389541 -19.1731355 3.2946048 -17.8125 3.125 C-17.13896484 3.04636719 -16.46542969 2.96773437 -15.77148438 2.88671875 C-12.78408864 2.50782953 -10.12747306 2.05098922 -7.32421875 0.9296875 C-5 0 -5 0 0 0 Z " fill="#F8FAF5" transform="translate(493,580)"/>
<path d="M0 0 C6.62709888 7.00330973 6.36417501 13.61577181 6.328125 22.890625 C6.33804706 24.25392219 6.34999402 25.61720598 6.36386108 26.98046875 C6.39609907 30.55507136 6.40660335 34.12936792 6.41070557 37.70410156 C6.41948745 43.42414288 6.45521128 49.14393428 6.5028801 54.86376953 C6.515373 56.8505493 6.51412976 58.83740029 6.51260376 60.82421875 C6.51956268 62.04238281 6.52652161 63.26054688 6.53369141 64.515625 C6.53495026 65.58039063 6.53620911 66.64515625 6.5375061 67.7421875 C6.74108343 71.59396459 6.74108343 71.59396459 8.7890625 77.890625 C0.8690625 77.890625 -7.0509375 77.890625 -15.2109375 77.890625 C-15.8709375 75.250625 -16.5309375 72.610625 -17.2109375 69.890625 C-17.695625 70.28894531 -18.1803125 70.68726563 -18.6796875 71.09765625 C-27.56808091 78.12290565 -34.80473721 79.92622631 -46.2109375 78.890625 C-51.47365889 77.84373956 -54.61137704 74.81009755 -57.94921875 70.8046875 C-61.86919164 64.85797941 -62.03060213 58.80929957 -61.2109375 51.890625 C-58.80296382 43.95775739 -53.06057197 40.00329582 -46.2109375 35.890625 C-42.1618048 33.95375359 -38.02506895 32.31094368 -33.8359375 30.703125 C-31.72027665 29.88576872 -29.60811823 29.05927424 -27.5 28.22265625 C-26.57912598 27.86921143 -25.65825195 27.5157666 -24.70947266 27.15161133 C-21.93954807 25.7536574 -20.22399212 24.23866021 -18.2109375 21.890625 C-17.23476328 18.1878952 -17.39523526 14.47188386 -19.1640625 11.04296875 C-22.3194962 6.97885003 -25.69629606 5.22747728 -30.71875 4.5546875 C-37.96541216 4.44652836 -43.5705028 6.09760433 -50.2109375 8.890625 C-51.2009375 9.220625 -52.1909375 9.550625 -53.2109375 9.890625 C-52.49641162 5.12711915 -51.41558906 0.54861104 -50.2109375 -4.109375 C-34.36897065 -9.16532187 -13.82998225 -10.24007196 0 0 Z " fill="#F4F7F2" transform="translate(712.2109375,500.109375)"/>
<path d="M0 0 C1.02480469 0.54333984 1.02480469 0.54333984 2.0703125 1.09765625 C6.73551889 3.97681082 9.3290012 7.7895236 11 13 C11.57966415 17.72404496 11.58120374 22.41277743 11.57421875 27.16796875 C11.58668616 28.53463005 11.6010265 29.90127541 11.61714172 31.26789856 C11.65496849 34.84487258 11.67031969 38.42157062 11.67993164 41.99871826 C11.69976042 47.73323418 11.75670212 53.46754221 11.80869484 59.20183754 C11.82395856 61.19646762 11.83047404 63.19115847 11.83683777 65.18583679 C11.84738945 67.00846794 11.84738945 67.00846794 11.8581543 68.86791992 C11.86163376 69.93411057 11.86511322 71.00030121 11.86869812 72.09880066 C11.99272163 74.8391798 12.38100564 77.33219144 13 80 C9.18751574 80.02887236 5.3750593 80.04675492 1.5625 80.0625 C0.47388672 80.07087891 -0.61472656 80.07925781 -1.73632812 80.08789062 C-2.77080078 80.09111328 -3.80527344 80.09433594 -4.87109375 80.09765625 C-5.82943115 80.10289307 -6.78776855 80.10812988 -7.77514648 80.11352539 C-10 80 -10 80 -11 79 C-11.36760731 76.67182036 -11.70241581 74.3381615 -12 72 C-12.94875 72.9075 -13.8975 73.815 -14.875 74.75 C-21.81951025 80.62291248 -29.12088903 82.73122379 -38.16796875 82.3828125 C-43.83643819 81.6165918 -48.00100813 79.3759028 -51.875 75.1875 C-56.02662923 68.96005616 -56.90966793 62.33491737 -56 55 C-53.81668118 47.61332256 -48.92411004 43.28856494 -42.44140625 39.5078125 C-38.00199395 37.18269289 -33.52561209 35.15370574 -28.80859375 33.46484375 C-28.09437256 33.20896484 -27.38015137 32.95308594 -26.64428711 32.68945312 C-25.2458149 32.19904046 -23.84173012 31.7242675 -22.43188477 31.26757812 C-17.94407001 29.71824673 -15.42685139 28.11698004 -13 24 C-12.39365831 19.57370566 -13.49180003 15.85304995 -15.75 12.0625 C-20.53538679 7.67589544 -25.55260751 7.58697534 -31.78125 7.6640625 C-36.12225306 8.11712835 -39.81092058 9.45151468 -43.8203125 11.125 C-46 12 -46 12 -48 12 C-47.68817931 10.58318366 -47.37551263 9.16655349 -47.0625 7.75 C-46.88847656 6.96109375 -46.71445312 6.1721875 -46.53515625 5.359375 C-46.052444 3.23121297 -45.53836822 1.11467158 -45 -1 C-30.81556612 -4.94533922 -13.45226088 -7.30060421 0 0 Z " fill="#F5F8F3" transform="translate(608,619)"/>
<path d="M0 0 C4.72085778 4.5948009 5.79914234 9.69139083 6.07978821 16.02864075 C6.11411622 18.57768719 6.12772234 21.12707099 6.12397766 23.67634583 C6.13644507 25.04300712 6.15078541 26.40965248 6.16690063 27.77627563 C6.2047274 31.35324966 6.2200786 34.9299477 6.22969055 38.50709534 C6.24951933 44.24161125 6.30646104 49.97591929 6.35845375 55.71021461 C6.37371747 57.70484469 6.38023295 59.69953554 6.38659668 61.69421387 C6.39714836 63.51684502 6.39714836 63.51684502 6.40791321 65.376297 C6.41139267 66.44248764 6.41487213 67.50867828 6.41845703 68.60717773 C6.54248054 71.34755688 6.93076455 73.84056852 7.54975891 76.50837708 C3.73727465 76.53724944 -0.07518179 76.55513199 -3.88774109 76.57087708 C-4.97635437 76.57925598 -6.06496765 76.58763489 -7.18656921 76.5962677 C-8.22104187 76.59949036 -9.25551453 76.60271301 -10.32133484 76.60603333 C-11.27967224 76.61127014 -12.23800964 76.61650696 -13.22538757 76.62190247 C-15.45024109 76.50837708 -15.45024109 76.50837708 -16.45024109 75.50837708 C-16.8178484 73.18019744 -17.1526569 70.84653858 -17.45024109 68.50837708 C-18.39899109 69.41587708 -19.34774109 70.32337708 -20.32524109 71.25837708 C-27.26975134 77.13128955 -34.57113011 79.23960086 -43.61820984 78.89118958 C-49.28667928 78.12496888 -53.45124922 75.88427988 -57.32524109 71.69587708 C-61.47687032 65.46843323 -62.35990902 58.84329445 -61.45024109 51.50837708 C-59.26692227 44.12169964 -54.37435113 39.79694201 -47.89164734 36.01618958 C-43.45223504 33.69106997 -38.97585318 31.66208281 -34.25883484 29.97322083 C-33.54461365 29.71734192 -32.83039246 29.46146301 -32.0945282 29.1978302 C-30.69605598 28.70741754 -29.29197121 28.23264457 -27.88212585 27.7759552 C-23.38217287 26.22243332 -20.94224595 24.58507331 -18.45024109 20.50837708 C-17.90033444 16.65903054 -17.5597317 14.16895811 -19.40336609 10.73103333 C-22.01162918 7.3551485 -24.46681696 5.78772497 -28.45024109 4.50837708 C-36.02439509 3.57517185 -42.27152509 4.71204344 -49.27055359 7.63337708 C-51.45024109 8.50837708 -51.45024109 8.50837708 -53.45024109 8.50837708 C-53.14152987 6.7160537 -52.82815045 4.92453386 -52.51274109 3.13337708 C-52.25170593 1.63677551 -52.25170593 1.63677551 -51.98539734 0.10993958 C-51.45024109 -2.49162292 -51.45024109 -2.49162292 -50.45024109 -4.49162292 C-35.27510783 -9.86614929 -13.01876522 -10.68550162 0 0 Z " fill="#F5F8F3" transform="translate(900.4502410888672,622.4916229248047)"/>
<path d="M0 0 C9.24 0 18.48 0 28 0 C28.4125 2.371875 28.825 4.74375 29.25 7.1875 C32.0497721 22.35842946 37.6622168 36.57361143 43 51 C46.14583632 43.44977106 48.90508761 35.78056844 51.51928711 28.0324707 C51.96477567 26.7191177 52.41562994 25.40757255 52.87182617 24.09790039 C53.54518938 22.16424462 54.20187534 20.22557163 54.85546875 18.28515625 C55.24371826 17.14957275 55.63196777 16.01398926 56.03198242 14.84399414 C57.38973546 9.87279514 57.38973546 9.87279514 58 0 C65.92 0 73.84 0 82 0 C80.48559232 3.7860192 78.90260407 7.10816389 76.99609375 10.6796875 C71.33193993 21.71241648 67.3592385 33.51471539 63.0625 45.125 C61.34849565 49.73305832 59.63040837 54.33958315 57.91015625 58.9453125 C57.49437317 60.05876541 57.07859009 61.17221832 56.65020752 62.31941223 C54.02440915 69.32843944 51.34797303 76.31456027 48.58203125 83.26953125 C48.26750504 84.06501373 47.95297882 84.86049622 47.62892151 85.68008423 C45.00631653 92.21087355 42.01766356 98.19203867 38 104 C37.34257813 105.04542969 36.68515625 106.09085938 36.0078125 107.16796875 C30.66669255 114.4588747 30.66669255 114.4588747 25.69238281 115.46826172 C20.08562165 115.93994842 14.58654812 115.56783189 9 115 C9.38744385 114.55342041 9.7748877 114.10684082 10.17407227 113.64672852 C24.97562075 96.86222159 24.97562075 96.86222159 30 76 C29.17781491 72.87896041 28.04896639 69.90317687 26.88671875 66.89453125 C26.39824463 65.58999748 26.39824463 65.58999748 25.89990234 64.2591095 C24.84046649 61.43913224 23.76451944 58.62580334 22.6875 55.8125 C21.95408435 53.87381858 21.22142212 51.93485198 20.48950195 49.99560547 C18.34367572 44.32371143 16.17416457 38.66107924 14 33 C13.40356757 31.44225002 12.80720821 29.88447205 12.2109375 28.32666016 C10.71413459 24.42177063 9.20421068 20.52220304 7.6875 16.625 C7.25074951 15.49940674 6.81399902 14.37381348 6.36401367 13.21411133 C5.95900635 12.18697021 5.55399902 11.1598291 5.13671875 10.1015625 C4.79342529 9.22838379 4.45013184 8.35520508 4.09643555 7.45556641 C2.83437404 4.4969496 2.83437404 4.4969496 0 0 Z " fill="#F5F8F3" transform="translate(625,617)"/>
<path d="M0 0 C19.47 0 38.94 0 59 0 C59 20.63722919 59 20.63722919 51.83325195 28.4543457 C51.32753662 28.91929443 50.82182129 29.38424316 50.30078125 29.86328125 C47.31934741 32.6809474 44.55099779 35.62987018 41.8125 38.6875 C41.00167969 39.57050781 40.19085938 40.45351563 39.35546875 41.36328125 C37.02448261 43.9725941 34.81672813 46.6481282 32.625 49.375 C29.23613437 53.57815136 25.68755242 57.56197232 22 61.5 C16.73116893 67.12852371 11.83310468 72.99204972 7 79 C5.03668091 81.37337941 3.04689 83.69724874 1 86 C0.67 86 0.34 86 0 86 C0 57.62 0 29.24 0 0 Z " fill="#82B183" transform="translate(286,404)"/>
<path d="M0 0 C0.00331015 0.5759192 0.00662029 1.1518384 0.01003075 1.74520969 C0.09134643 15.77603357 0.18346679 29.80675199 0.28752708 43.83742619 C0.33759146 50.62263307 0.38403491 57.40782825 0.421875 64.19311523 C0.45840653 70.74191777 0.5051335 77.29060172 0.55806351 83.83929253 C0.57658847 86.3370887 0.59170342 88.83491258 0.60334396 91.33275032 C0.62023854 94.83272659 0.64928221 98.33240786 0.68115234 101.83227539 C0.68331253 102.86374191 0.68547272 103.89520844 0.68769836 104.95793152 C0.69886185 105.91835358 0.71002533 106.87877563 0.7215271 107.86830139 C0.72705786 108.6951497 0.73258862 109.521998 0.73828697 110.37390232 C0.99948841 113.78444343 0.99948841 113.78444343 3 120 C-6.57 120 -16.14 120 -26 120 C-25.34 117.69 -24.68 115.38 -24 113 C-23.71344491 110.65929022 -23.71344491 110.65929022 -23.75276184 108.46035767 C-23.74856735 107.6307402 -23.74437286 106.80112274 -23.74005127 105.94636536 C-23.74567078 105.05994858 -23.75129028 104.1735318 -23.75708008 103.26025391 C-23.75518173 102.30808487 -23.75328339 101.35591583 -23.75132751 100.37489319 C-23.74763725 97.24203125 -23.75830145 94.10940369 -23.76953125 90.9765625 C-23.77072445 88.78852363 -23.77117592 86.60048425 -23.7709198 84.41244507 C-23.7724818 79.83124575 -23.78074836 75.25012489 -23.79418945 70.66894531 C-23.81115857 64.81277157 -23.81500411 58.95668411 -23.81424427 53.10048866 C-23.81451698 48.58276555 -23.82001476 44.06506109 -23.82724571 39.54734421 C-23.83041588 37.38890092 -23.83239591 35.23045553 -23.83313942 33.07201004 C-23.83532173 30.04748228 -23.84410702 27.02304357 -23.85473633 23.99853516 C-23.85405655 22.67498268 -23.85405655 22.67498268 -23.85336304 21.32469177 C-23.88151375 15.81163803 -24.3069642 10.47048723 -25 5 C-24.09378906 4.89042969 -23.18757813 4.78085937 -22.25390625 4.66796875 C-15.16304641 3.74503144 -6.86808454 0 0 0 Z " fill="#F8FAF5" transform="translate(303,579)"/>
<path d="M0 0 C0.495 7.92 0.495 7.92 1 16 C2.32 14.02 3.64 12.04 5 10 C9.46272757 5.35095577 13.8461281 1.23438776 20.4921875 0.859375 C23.01355289 0.81651893 25.48598076 0.79980958 28 1 C28.495 1.495 28.495 1.495 29 2 C28.95177973 8.85933285 27.71925544 14.73388963 25 21 C24.030625 20.67 23.06125 20.34 22.0625 20 C17.68933308 18.79848343 13.49109535 18.06699075 9 19 C5.62672422 21.05165654 2.77961806 23.44076387 1 27 C0.89975516 28.5914941 0.86166379 30.18710525 0.85473633 31.78173828 C0.84835648 32.77682404 0.84197662 33.77190979 0.83540344 34.79714966 C0.83429062 35.8772934 0.8331778 36.95743713 0.83203125 38.0703125 C0.82870285 39.18050751 0.82537445 40.29070251 0.82194519 41.43453979 C0.81687341 43.7900145 0.81453694 46.14549641 0.81469727 48.50097656 C0.81252164 52.08931526 0.79439846 55.67734118 0.77539062 59.265625 C0.77245452 61.55468645 0.77047118 63.84374936 0.76953125 66.1328125 C0.76234573 67.20081085 0.75516022 68.2688092 0.74775696 69.36917114 C0.75083359 70.38316986 0.75391022 71.39716858 0.75708008 72.44189453 C0.75565506 73.32410675 0.75423004 74.20631897 0.75276184 75.11526489 C1.00032494 78.90120452 1.00032494 78.90120452 3 86 C-6.57 86 -16.14 86 -26 86 C-25.34 82.7 -24.68 79.4 -24 76 C-23.84175197 73.70959834 -23.75408027 71.41255923 -23.75708008 69.11669922 C-23.75400345 67.86194794 -23.75092682 66.60719666 -23.74775696 65.31442261 C-23.7546552 63.97784233 -23.76192221 62.64126392 -23.76953125 61.3046875 C-23.77072677 59.90324954 -23.77117543 58.50181076 -23.7709198 57.10037231 C-23.77247361 54.18063246 -23.78067883 51.26101714 -23.79418945 48.34130859 C-23.81120914 44.61837884 -23.81500213 40.89558489 -23.81424427 37.17262077 C-23.81451745 34.28482798 -23.82002187 31.39706423 -23.82724571 28.50928116 C-23.83040336 27.13709863 -23.83239291 25.76491285 -23.83313942 24.3927269 C-23.84098762 17.51160649 -23.92496692 10.80407471 -25 4 C-23.38931641 3.81824219 -23.38931641 3.81824219 -21.74609375 3.6328125 C-20.30986025 3.46384385 -18.87366428 3.29455596 -17.4375 3.125 C-16.73302734 3.04636719 -16.02855469 2.96773438 -15.30273438 2.88671875 C-10.2620598 2.28276696 -4.9553918 0 0 0 Z " fill="#F6F8F3" transform="translate(760,492)"/>
<path d="M0 0 C4.38391313 1.98899762 7.31885556 4.10470015 9.921875 8.26953125 C11.52009456 13.43384616 12.23879039 19.49319843 9.875 24.4765625 C8.546875 26.39453125 8.546875 26.39453125 5.921875 29.26953125 C5.261875 29.26953125 4.601875 29.26953125 3.921875 29.26953125 C4.01275391 30.22843262 4.10363281 31.18733398 4.19726562 32.17529297 C4.53365463 35.72728787 4.86882033 39.27939731 5.20361328 42.83154297 C5.34878619 44.36998607 5.49429246 45.90839774 5.64013672 47.44677734 C5.84950658 49.65584298 6.05768396 51.86501822 6.265625 54.07421875 C6.36405701 55.1086763 6.36405701 55.1086763 6.46447754 56.16403198 C6.921875 61.04178784 6.921875 61.04178784 6.921875 63.26953125 C-0.668125 63.26953125 -8.258125 63.26953125 -16.078125 63.26953125 C-16.078125 52.17230903 -16.078125 52.17230903 -15.578125 46.83203125 C-15.40789283 44.64480583 -15.24115623 42.4573052 -15.078125 40.26953125 C-14.95824219 38.75359375 -14.95824219 38.75359375 -14.8359375 37.20703125 C-14.52163223 30.99461549 -14.52163223 30.99461549 -17.515625 25.76953125 C-18.36125 24.94453125 -19.206875 24.11953125 -20.078125 23.26953125 C-21.67041148 18.49267182 -22.07246154 13.81110896 -20.20703125 9.04296875 C-15.87216868 1.45340608 -8.93330908 -3.14009172 0 0 Z " fill="#233D45" transform="translate(602.078125,491.73046875)"/>
<path d="M0 0 C0.14863004 4.05645682 0.25733927 8.11185486 0.32958984 12.17041016 C0.35971304 13.54992281 0.40062275 14.92924467 0.45263672 16.30810547 C0.52562502 18.29310092 0.55629398 20.27950932 0.5859375 22.265625 C0.63306885 24.05661621 0.63306885 24.05661621 0.68115234 25.88378906 C0 29 0 29 -2.90380859 31.38769531 C-6.91577629 33.47687956 -9.59637447 33.86138783 -14 33 C-18.89270769 30.59980377 -21.18686184 28.13722479 -23 23 C-23.82269122 17.44683426 -22.4976926 14.24875336 -19.41015625 9.78515625 C-14.76111893 3.89980984 -7.49352109 0 0 0 Z " fill="#233D45" transform="translate(883,656)"/>
<path d="M0 0 C0.14863004 4.05645682 0.25733927 8.11185486 0.32958984 12.17041016 C0.35971304 13.54992281 0.40062275 14.92924467 0.45263672 16.30810547 C0.52562502 18.29310092 0.55629398 20.27950932 0.5859375 22.265625 C0.63306885 24.05661621 0.63306885 24.05661621 0.68115234 25.88378906 C0 29 0 29 -2.90380859 31.38769531 C-6.91577629 33.47687956 -9.59637447 33.86138783 -14 33 C-18.89270769 30.59980377 -21.18686184 28.13722479 -23 23 C-23.82269122 17.44683426 -22.4976926 14.24875336 -19.41015625 9.78515625 C-14.76111893 3.89980984 -7.49352109 0 0 0 Z " fill="#223C43" transform="translate(596,656)"/>
<path d="M0 0 C0.1238616 4.05656281 0.21445733 8.11238978 0.2746582 12.17041016 C0.2997593 13.54983702 0.33384873 14.92913142 0.37719727 16.30810547 C0.43802875 18.29335872 0.46357937 20.27959359 0.48828125 22.265625 C0.51446533 23.45961914 0.54064941 24.65361328 0.56762695 25.88378906 C0 29 0 29 -2.37426758 31.38769531 C-6.53738761 33.94401746 -10.26608667 33.77860417 -15 33 C-18.66510187 30.86202391 -20.38575046 28.85626278 -22 25 C-22.94036627 20.10547062 -23.05383152 15.80188809 -20.4921875 11.421875 C-15.31171043 5.2865649 -8.37009748 0 0 0 Z " fill="#213C44" transform="translate(695,534)"/>
<path d="M0 0 C0.66 0.33 1.32 0.66 2 1 C2.73022461 3.47753906 2.73022461 3.47753906 3.40234375 6.765625 C3.65306641 7.96703125 3.90378906 9.1684375 4.16210938 10.40625 C4.41798828 11.6746875 4.67386719 12.943125 4.9375 14.25 C5.44558436 16.71375435 5.95469485 19.17729731 6.46484375 21.640625 C6.71476074 22.85814453 6.96467773 24.07566406 7.22216797 25.33007812 C8.219049 30.03350427 9.32293854 34.70842391 10.45141602 39.38183594 C11 42 11 42 11 45 C3.08 45 -4.84 45 -13 45 C-10.44085228 34.19470962 -7.24848799 23.61462464 -4 13 C-3.78102051 12.28376465 -3.56204102 11.5675293 -3.33642578 10.82958984 C-2.2309466 7.2176543 -1.11918096 3.60771273 0 0 Z " fill="#253F47" transform="translate(221,609)"/>
</svg>
